%FSLAX45Y45*%
G04 Gerber Fmt 4.5, Leading zero omitted, Abs format (unit mm)*
G04 Created by KiCad (PCBNEW 5.1.6) date 2020-08-30 14:34:45*
%MOMM*%
%LPD*%
G01*
G04 APERTURE LIST*
%TA.AperFunction,Profile*%
%ADD10C,0.050000*%
%TD*%
%ADD11C,0.200000*%
%ADD12C,0.300000*%
G04 APERTURE END LIST*
D10*
X23037800Y-11938000D02*
X17373600Y-11938000D01*
X17373600Y-10058400D02*
X17373600Y-11938000D01*
X23037800Y-10058400D02*
X17373600Y-10058400D01*
X23037800Y-11938000D02*
X23037800Y-10058400D01*
D11*
D12*
X17657528Y-12406214D02*
X17657528Y-12106214D01*
X17728957Y-12106214D01*
X17771814Y-12120500D01*
X17800386Y-12149071D01*
X17814671Y-12177643D01*
X17828957Y-12234786D01*
X17828957Y-12277643D01*
X17814671Y-12334786D01*
X17800386Y-12363357D01*
X17771814Y-12391929D01*
X17728957Y-12406214D01*
X17657528Y-12406214D01*
X17957528Y-12406214D02*
X17957528Y-12206214D01*
X17957528Y-12263357D02*
X17971814Y-12234786D01*
X17986100Y-12220500D01*
X18014671Y-12206214D01*
X18043243Y-12206214D01*
X18143243Y-12406214D02*
X18143243Y-12206214D01*
X18143243Y-12106214D02*
X18128957Y-12120500D01*
X18143243Y-12134786D01*
X18157528Y-12120500D01*
X18143243Y-12106214D01*
X18143243Y-12134786D01*
X18328957Y-12406214D02*
X18300386Y-12391929D01*
X18286100Y-12363357D01*
X18286100Y-12106214D01*
X18486100Y-12406214D02*
X18457528Y-12391929D01*
X18443243Y-12363357D01*
X18443243Y-12106214D01*
X18828957Y-12406214D02*
X18828957Y-12106214D01*
X18928957Y-12320500D01*
X19028957Y-12106214D01*
X19028957Y-12406214D01*
X19300386Y-12406214D02*
X19300386Y-12249071D01*
X19286100Y-12220500D01*
X19257528Y-12206214D01*
X19200386Y-12206214D01*
X19171814Y-12220500D01*
X19300386Y-12391929D02*
X19271814Y-12406214D01*
X19200386Y-12406214D01*
X19171814Y-12391929D01*
X19157528Y-12363357D01*
X19157528Y-12334786D01*
X19171814Y-12306214D01*
X19200386Y-12291929D01*
X19271814Y-12291929D01*
X19300386Y-12277643D01*
X19443243Y-12206214D02*
X19443243Y-12506214D01*
X19443243Y-12220500D02*
X19471814Y-12206214D01*
X19528957Y-12206214D01*
X19557528Y-12220500D01*
X19571814Y-12234786D01*
X19586100Y-12263357D01*
X19586100Y-12349071D01*
X19571814Y-12377643D01*
X19557528Y-12391929D01*
X19528957Y-12406214D01*
X19471814Y-12406214D01*
X19443243Y-12391929D01*
X19714671Y-12377643D02*
X19728957Y-12391929D01*
X19714671Y-12406214D01*
X19700386Y-12391929D01*
X19714671Y-12377643D01*
X19714671Y-12406214D01*
X19714671Y-12220500D02*
X19728957Y-12234786D01*
X19714671Y-12249071D01*
X19700386Y-12234786D01*
X19714671Y-12220500D01*
X19714671Y-12249071D01*
M02*
