M48
; DRILL file {KiCad 5.1.6} date Sun Aug 30 14:34:45 2020
; FORMAT={-:-/ absolute / inch / decimal}
; #@! TF.CreationDate,2020-08-30T14:34:45-04:00
; #@! TF.GenerationSoftware,Kicad,Pcbnew,5.1.6
; #@! TF.FileFunction,Plated,1,2,PTH
FMAT,2
INCH
T1C0.0030
T2C0.0394
%
G90
G05
T1
X7.19Y-4.25
X7.2Y-4.32
X7.29Y-4.32
X7.3Y-4.1
X7.56Y-4.05
X7.56Y-4.28
X7.65Y-4.17
X7.728Y-4.262
X7.73Y-4.28
X7.75Y-4.18
X7.76Y-4.31
X7.77Y-4.1
X7.81Y-4.07
X7.8436Y-4.2516
X7.896Y-4.214
X7.9Y-4.07
X8.12Y-4.32
X8.14Y-4.1
X8.1515Y-4.0134
X8.202Y-4.096
X8.3982Y-4.0482
X8.4Y-4.29
X8.41Y-4.12
X8.47Y-4.1
X8.5Y-4.2
X8.57Y-4.06
X8.67Y-4.16
X8.7Y-4.24
X8.97Y-4.13
T2
X7.032Y-4.458
X7.032Y-4.558
X7.132Y-4.458
X7.132Y-4.558
X7.232Y-4.458
X7.232Y-4.558
X7.332Y-4.458
X7.332Y-4.558
X7.432Y-4.458
X7.432Y-4.558
X7.532Y-4.458
X7.532Y-4.558
X7.632Y-4.458
X7.632Y-4.558
X7.732Y-4.458
X7.732Y-4.558
X7.832Y-4.458
X7.832Y-4.558
X7.932Y-4.458
X7.932Y-4.558
X8.032Y-4.458
X8.032Y-4.558
X8.132Y-4.458
X8.132Y-4.558
X8.232Y-4.458
X8.232Y-4.558
X8.332Y-4.458
X8.332Y-4.558
X8.432Y-4.458
X8.432Y-4.558
X8.532Y-4.458
X8.532Y-4.558
X8.632Y-4.458
X8.632Y-4.558
X8.732Y-4.458
X8.732Y-4.558
X8.832Y-4.458
X8.832Y-4.558
X8.932Y-4.458
X8.932Y-4.558
T0
M30
